<svg width="37" height="37" viewBox="0 0 37 37" fill="none" xmlns="http://www.w3.org/2000/svg">
<path d="M16.9278 28.975H19.5965V27.0688C20.8674 26.84 21.9603 26.3444 22.8753 25.5819C23.7903 24.8194 24.2478 23.6884 24.2478 22.1888C24.2478 21.1213 23.9428 20.1428 23.3328 19.2532C22.7228 18.3636 21.5028 17.5884 19.6728 16.9276C18.1478 16.4192 17.093 15.9744 16.5084 15.5932C15.9238 15.2119 15.6315 14.6909 15.6315 14.03C15.6315 13.3692 15.8669 12.8482 16.3376 12.4669C16.8083 12.0857 17.488 11.8951 18.3765 11.8951C19.1899 11.8951 19.8253 12.0918 20.2828 12.4852C20.7403 12.8787 21.0707 13.3682 21.274 13.9538L23.714 12.9625C23.4345 12.073 22.92 11.2978 22.1707 10.6369C21.4215 9.97609 20.5888 9.60755 19.6728 9.5313V7.62505H17.004V9.5313C15.7332 9.81088 14.742 10.37 14.0303 11.2088C13.3186 12.0475 12.9628 12.988 12.9628 14.03C12.9628 15.2246 13.3125 16.1905 14.012 16.9276C14.7115 17.6646 15.8105 18.3001 17.309 18.8338C18.9103 19.4184 20.0225 19.9394 20.6457 20.3969C21.269 20.8544 21.5801 21.4517 21.579 22.1888C21.579 23.0275 21.2807 23.6442 20.6839 24.0386C20.0871 24.4331 19.3688 24.6298 18.529 24.6288C17.6893 24.6278 16.9456 24.3675 16.298 23.848C15.6504 23.3285 15.174 22.5467 14.869 21.5026L12.3528 22.4938C12.7086 23.7138 13.2617 24.6989 14.012 25.4492C14.7623 26.1996 15.7342 26.714 16.9278 26.9926V28.975ZM18.3003 33.5501C16.1907 33.5501 14.2082 33.1495 12.3528 32.3484C10.4974 31.5472 8.88342 30.4609 7.51092 29.0894C6.13842 27.7179 5.05211 26.104 4.25199 24.2475C3.45188 22.3911 3.05131 20.4086 3.05029 18.3C3.04928 16.1915 3.44984 14.209 4.25199 12.3525C5.05415 10.4961 6.14045 8.88216 7.51092 7.51067C8.88139 6.13919 10.4953 5.05288 12.3528 4.25175C14.2102 3.45062 16.1927 3.05005 18.3003 3.05005C20.4078 3.05005 22.3903 3.45062 24.2478 4.25175C26.1052 5.05288 27.7192 6.13919 29.0897 7.51067C30.4601 8.88216 31.547 10.4961 32.3501 12.3525C33.1533 14.209 33.5533 16.1915 33.5503 18.3C33.5472 20.4086 33.1467 22.3911 32.3486 24.2475C31.5505 26.104 30.4642 27.7179 29.0897 29.0894C27.7151 30.4609 26.1012 31.5477 24.2478 32.3499C22.3944 33.152 20.4119 33.5521 18.3003 33.5501ZM18.3003 30.5C21.7061 30.5 24.5909 29.3182 26.9547 26.9544C29.3184 24.5907 30.5003 21.7059 30.5003 18.3C30.5003 14.8942 29.3184 12.0094 26.9547 9.64567C24.5909 7.28192 21.7061 6.10005 18.3003 6.10005C14.8945 6.10005 12.0097 7.28192 9.64592 9.64567C7.28217 12.0094 6.10029 14.8942 6.10029 18.3C6.10029 21.7059 7.28217 24.5907 9.64592 26.9544C12.0097 29.3182 14.8945 30.5001 18.3003 30.5Z" fill="white"/>
</svg>
