<svg width="38" height="37" viewBox="0 0 38 37" fill="none" xmlns="http://www.w3.org/2000/svg">
<g clip-path="url(#clip0_407_11666)">
<path d="M26.8346 32.1639V29.1139C26.8346 27.4961 26.1919 25.9445 25.0479 24.8006C23.9039 23.6566 22.3524 23.0139 20.7346 23.0139H8.53457C6.91675 23.0139 5.36519 23.6566 4.22122 24.8006C3.07725 25.9445 2.43457 27.4961 2.43457 29.1139V32.1639" stroke="white" stroke-width="3.05" stroke-linecap="round" stroke-linejoin="round"/>
<path d="M14.6347 16.9139C18.0036 16.9139 20.7347 14.1828 20.7347 10.8139C20.7347 7.44493 18.0036 4.71387 14.6347 4.71387C11.2657 4.71387 8.53467 7.44493 8.53467 10.8139C8.53467 14.1828 11.2657 16.9139 14.6347 16.9139Z" stroke="white" stroke-width="3.05" stroke-linecap="round" stroke-linejoin="round"/>
<path d="M35.9847 32.1639V29.1139C35.9837 27.7623 35.5338 26.4494 34.7058 25.3812C33.8777 24.313 32.7183 23.55 31.4097 23.2122" stroke="white" stroke-width="3.05" stroke-linecap="round" stroke-linejoin="round"/>
<path d="M25.3096 4.91211C26.6217 5.24807 27.7847 6.01118 28.6152 7.08113C29.4457 8.15109 29.8965 9.46702 29.8965 10.8215C29.8965 12.1759 29.4457 13.4919 28.6152 14.5618C27.7847 15.6318 26.6217 16.3949 25.3096 16.7309" stroke="white" stroke-width="3.05" stroke-linecap="round" stroke-linejoin="round"/>
</g>
<defs>
<clipPath id="clip0_407_11666">
<rect x="0.909668" y="0.138916" width="36.6" height="36.6" rx="12.2" fill="white"/>
</clipPath>
</defs>
</svg>
