<svg width="37" height="37" viewBox="0 0 37 37" fill="none" xmlns="http://www.w3.org/2000/svg">
<path d="M25.9253 34.6937H11.636C11.148 34.6937 10.721 34.3888 10.5532 33.9465C10.3855 33.5043 10.5228 32.9857 10.8888 32.6807C11.2548 32.3757 11.5903 31.9793 11.8343 31.5523C12.3223 30.7745 12.5662 29.89 12.5662 28.9903C12.5662 26.2605 10.3397 24.034 7.60999 24.034C6.19174 24.034 4.83449 24.644 3.88899 25.7267C3.56874 26.0775 3.06546 26.2148 2.62321 26.047C2.18096 25.8793 1.87598 25.4523 1.87598 24.9795V18.3C1.87598 13.603 4.77353 10.2023 9.27228 9.63801C9.68403 9.57701 10.1567 9.53125 10.6447 9.53125H25.8947C26.2607 9.53125 26.7335 9.5465 27.2215 9.62275C31.7202 10.1412 34.6635 13.5572 34.6635 18.3V25.925C34.694 31.171 31.1713 34.6937 25.9253 34.6937ZM13.9997 32.4062H25.9253C29.8598 32.4062 32.4065 29.8595 32.4065 25.925V18.3C32.4065 14.7315 30.3172 12.2762 26.9317 11.8797C26.5657 11.8187 26.2455 11.8187 25.9253 11.8187H10.6753C10.3093 11.8187 9.95849 11.8492 9.60774 11.895C6.25274 12.322 4.19401 14.762 4.19401 18.3V22.6005C5.23101 22.0363 6.42051 21.7312 7.62526 21.7312C11.6208 21.7312 14.869 24.9795 14.869 28.975C14.869 30.1797 14.564 31.3692 13.9997 32.4062Z" fill="white"/>
<path d="M9.43965 11.9101C9.07365 11.9101 8.73817 11.7424 8.50942 11.4374C8.25017 11.0866 8.21968 10.6291 8.41793 10.2478C8.67718 9.72932 9.04313 9.22611 9.51588 8.76861L14.4721 3.7971C17.0036 1.28085 21.1212 1.28085 23.6527 3.7971L26.3214 6.51164C27.4499 7.62489 28.1361 9.11939 28.2124 10.7054C28.2276 11.0561 28.0904 11.3916 27.8311 11.6204C27.5719 11.8491 27.2212 11.9558 26.8857 11.8948C26.5807 11.8491 26.2604 11.8339 25.9249 11.8339H10.6749C10.3089 11.8339 9.95813 11.8644 9.60738 11.9101C9.56163 11.9101 9.50065 11.9101 9.43965 11.9101ZM11.9864 9.53111H25.6504C25.4522 9.01261 25.1319 8.53988 24.7049 8.11288L22.0209 5.39833C20.3892 3.78183 17.7204 3.78183 16.0734 5.39833L11.9864 9.53111Z" fill="white"/>
<path d="M33.55 26.3064H28.975C26.657 26.3064 24.7812 24.4307 24.7812 22.1127C24.7812 19.7947 26.657 17.9189 28.975 17.9189H33.55C34.1753 17.9189 34.6938 18.4374 34.6938 19.0627C34.6938 19.6879 34.1753 20.2064 33.55 20.2064H28.975C27.9228 20.2064 27.0688 21.0604 27.0688 22.1127C27.0688 23.1649 27.9228 24.0189 28.975 24.0189H33.55C34.1753 24.0189 34.6938 24.5374 34.6938 25.1627C34.6938 25.7879 34.1753 26.3064 33.55 26.3064Z" fill="white"/>
<path d="M7.62461 36.2189C5.09311 36.2189 2.71411 34.8769 1.43311 32.6962C0.746863 31.5982 0.380859 30.3019 0.380859 28.9752C0.380859 27.2214 1.02136 25.5287 2.19561 24.2019C3.56811 22.6312 5.55061 21.7314 7.62461 21.7314C11.6201 21.7314 14.8684 24.9797 14.8684 28.9752C14.8684 30.3019 14.5024 31.5982 13.8161 32.7115C13.4349 33.352 12.9468 33.9315 12.3673 34.4195C11.1016 35.5785 9.40886 36.2189 7.62461 36.2189ZM7.62461 24.0189C6.20636 24.0189 4.84911 24.6289 3.90361 25.7117C3.11061 26.6267 2.66836 27.7857 2.66836 28.9752C2.66836 29.8749 2.91231 30.7594 3.38506 31.5219C4.26956 33.0164 5.90136 33.9314 7.62461 33.9314C8.82936 33.9314 9.98837 33.4892 10.8729 32.6962C11.2694 32.3607 11.6049 31.9642 11.8489 31.5372C12.3369 30.7594 12.5809 29.8749 12.5809 28.9752C12.5809 26.2454 10.3544 24.0189 7.62461 24.0189Z" fill="white"/>
<path d="M9.25664 31.7047C8.96689 31.7047 8.67709 31.598 8.44834 31.3693L5.23061 28.1516C4.78836 27.7093 4.78836 26.9773 5.23061 26.5351C5.67286 26.0928 6.40486 26.0928 6.84711 26.5351L10.0648 29.7528C10.5071 30.195 10.5071 30.927 10.0648 31.3693C9.83609 31.598 9.54639 31.7047 9.25664 31.7047Z" fill="white"/>
<path d="M5.9934 31.7502C5.70365 31.7502 5.41395 31.6434 5.1852 31.4147C4.74295 30.9724 4.74295 30.2404 5.1852 29.7982L8.40293 26.5805C8.84518 26.1382 9.57718 26.1382 10.0194 26.5805C10.4617 27.0227 10.4617 27.7547 10.0194 28.197L6.8017 31.4147C6.57295 31.6434 6.28315 31.7502 5.9934 31.7502Z" fill="white"/>
</svg>
